<?xml version="1.0" encoding="utf-8"?>
<!-- Generator: Adobe Illustrator 21.1.0, SVG Export Plug-In . SVG Version: 6.00 Build 0)  -->
<svg version="1.1" id="Capa_1" xmlns="http://www.w3.org/2000/svg" xmlns:xlink="http://www.w3.org/1999/xlink" x="0px" y="0px"
	 viewBox="0 0 40 40" style="enable-background:new 0 0 40 40;" xml:space="preserve">
<style type="text/css">
	.st0{fill:#FFFFFF;stroke:#FFFFFF;}
	.st1{fill:#FFFFFF;}
	.st2{fill:#211915;}
</style>
<g id="GIFOS">
	<g id="button-slider-right-md-noct" transform="translate(176.000000, 2903.000000)">
		<rect id="Rectangle" x="-175.5" y="-2902.5" class="st0" width="39" height="39"/>
		<g id="Shape">
			<path id="path-1_1_" class="st1" d="M-154.4-2883l-5.3,5.3c-0.4,0.4-0.4,1,0,1.4c0.4,0.4,1,0.4,1.4,0l6-6c0.4-0.4,0.4-1,0-1.4
				l-6-6c-0.4-0.4-1-0.4-1.4,0c-0.4,0.4-0.4,1,0,1.4L-154.4-2883z"/>
		</g>
		<g id="Rectangle_1_" transform="translate(-8.000000, -5.000000)">
			<rect x="-160" y="-2890" class="st1" width="24" height="24"/>
		</g>
		<g>
			<path id="path-1" class="st2" d="M-154.4-2883l-5.3,5.3c-0.4,0.4-0.4,1,0,1.4c0.4,0.4,1,0.4,1.4,0l6-6c0.4-0.4,0.4-1,0-1.4l-6-6
				c-0.4-0.4-1-0.4-1.4,0c-0.4,0.4-0.4,1,0,1.4L-154.4-2883z"/>
		</g>
	</g>
</g>
</svg>
