<?xml version="1.0" encoding="utf-8"?>
<!-- Generator: Adobe Illustrator 21.1.0, SVG Export Plug-In . SVG Version: 6.00 Build 0)  -->
<svg version="1.1" id="Capa_1" xmlns="http://www.w3.org/2000/svg" xmlns:xlink="http://www.w3.org/1999/xlink" x="0px" y="0px"
	 viewBox="0 0 40 40" style="enable-background:new 0 0 40 40;" xml:space="preserve">
<style type="text/css">
	.st0{fill:none;stroke:#FFFFFF;}
	.st1{filter:url(#Adobe_OpacityMaskFilter);}
	.st2{fill:#FFFFFF;}
	.st3{mask:url(#mask-2);}
</style>
<g id="GIFOS">
	<g id="_x31_6-UI-Kit-Modo-Nocturno" transform="translate(-176.000000, -2959.000000)">
		<g id="button-slider-left-md-noct" transform="translate(176.000000, 2959.000000)">
			<rect id="Rectangle-Copy-8" x="0.5" y="0.5" class="st0" width="39" height="39"/>
			<g id="chevron-left" transform="translate(8.000000, 8.000000)">
				<g id="Shape">
					<path id="path-1_1_" d="M10.4,12l5.3-5.3c0.4-0.4,0.4-1,0-1.4c-0.4-0.4-1-0.4-1.4,0l-6,6c-0.4,0.4-0.4,1,0,1.4l6,6
						c0.4,0.4,1,0.4,1.4,0c0.4-0.4,0.4-1,0-1.4L10.4,12z"/>
				</g>
				<defs>
					<filter id="Adobe_OpacityMaskFilter" filterUnits="userSpaceOnUse" x="0" y="0" width="24" height="24">
						<feColorMatrix  type="matrix" values="1 0 0 0 0  0 1 0 0 0  0 0 1 0 0  0 0 0 1 0"/>
					</filter>
				</defs>
				<mask maskUnits="userSpaceOnUse" x="0" y="0" width="24" height="24" id="mask-2">
					<g class="st1">
						<path id="path-1" class="st2" d="M10.4,12l5.3-5.3c0.4-0.4,0.4-1,0-1.4c-0.4-0.4-1-0.4-1.4,0l-6,6c-0.4,0.4-0.4,1,0,1.4l6,6
							c0.4,0.4,1,0.4,1.4,0c0.4-0.4,0.4-1,0-1.4L10.4,12z"/>
					</g>
				</mask>
				<g id="Primary-color-Copy-2" class="st3">
					<rect id="Rectangle" y="0" class="st2" width="24" height="24"/>
				</g>
			</g>
		</g>
	</g>
</g>
</svg>
